HIERARCHY
ROOT root
{
	OFFSET 0.000000 0.000000 0.000000
	CHANNELS 6 Xposition Yposition Zposition Zrotation Yrotation Xrotation
	JOINT lhip
	{
		OFFSET 0.058581 -0.082280 -0.017664
		CHANNELS 3 Zrotation Yrotation Xrotation
		JOINT lknee
		{
			OFFSET 0.043451 -0.386469 0.008037
			CHANNELS 3 Zrotation Yrotation Xrotation
			JOINT lankle
			{
				OFFSET -0.014790 -0.426874 -0.037428
				CHANNELS 3 Zrotation Yrotation Xrotation
				JOINT ltoe
				{
					OFFSET 0.041054 -0.060286 0.122042
					CHANNELS 3 Zrotation Yrotation Xrotation
					End Site
					{
						OFFSET 0.000000 0.000000 0.000000
					}
				}
			}
		}
	}
	JOINT rhip
	{
		OFFSET -0.060310 -0.090513 -0.013543
		CHANNELS 3 Zrotation Yrotation Xrotation
		JOINT rknee
		{
			OFFSET -0.043257 -0.383688 -0.004843
			CHANNELS 3 Zrotation Yrotation Xrotation
			JOINT rankle
			{
				OFFSET 0.019056 -0.420046 -0.034562
				CHANNELS 3 Zrotation Yrotation Xrotation
				JOINT rtoe
				{
					OFFSET -0.034840 -0.062106 0.130323
					CHANNELS 3 Zrotation Yrotation Xrotation
					End Site
					{
						OFFSET 0.000000 0.000000 0.000000
					}
				}
			}
		}
	}
	JOINT lowerback
	{
		OFFSET 0.004439 0.124404 -0.038385
		CHANNELS 3 Zrotation Yrotation Xrotation
		JOINT upperback
		{
			OFFSET 0.004488 0.137956 0.026820
			CHANNELS 3 Zrotation Yrotation Xrotation
			JOINT chest
			{
				OFFSET -0.002265 0.056032 0.002855
				CHANNELS 3 Zrotation Yrotation Xrotation
				JOINT lowerneck
				{
					OFFSET -0.013390 0.211636 -0.033468
					CHANNELS 3 Zrotation Yrotation Xrotation
					JOINT upperneck
					{
						OFFSET 0.010113 0.088937 0.050410
						CHANNELS 3 Zrotation Yrotation Xrotation
						End Site
						{
							OFFSET 0.000000 0.000000 0.000000
						}
					}
				}
				JOINT lclavicle
				{
					OFFSET 0.071702 0.114000 -0.018898
					CHANNELS 3 Zrotation Yrotation Xrotation
					JOINT lshoulder
					{
						OFFSET 0.122921 0.045205 -0.019046
						CHANNELS 3 Zrotation Yrotation Xrotation
						JOINT lelbow
						{
							OFFSET 0.255332 -0.015649 -0.022946
							CHANNELS 3 Zrotation Yrotation Xrotation
							JOINT lwrist
							{
								OFFSET 0.265709 0.012698 -0.007375
								CHANNELS 3 Zrotation Yrotation Xrotation
								End Site
								{
									OFFSET 0.000000 0.000000 0.000000
								}
							}
						}
					}
				}
				JOINT rclavicle
				{
					OFFSET -0.082954 0.112472 -0.023707
					CHANNELS 3 Zrotation Yrotation Xrotation
					JOINT rshoulder
					{
						OFFSET -0.113228 0.046853 -0.008472
						CHANNELS 3 Zrotation Yrotation Xrotation
						JOINT relbow
						{
							OFFSET -0.260127 -0.014369 -0.031269
							CHANNELS 3 Zrotation Yrotation Xrotation
							JOINT rwrist
							{
								OFFSET -0.269108 0.006794 -0.006027
								CHANNELS 3 Zrotation Yrotation Xrotation
								End Site
								{
									OFFSET 0.000000 0.000000 0.000000
								}
							}
						}
					}
				}
			}
		}
	}
}
MOTION
Frames: 5
Frame Time: 0.033333
-0.972440 1.422483 0.997945 100.298402 2.167313 88.208689 3.139841 -4.079996 -23.884346 -1.904351 -9.901689 10.577481 3.713924 7.387585 -18.012748 0.000000 -0.000000 0.000000 7.995734 3.219019 3.142605 6.625591 17.876204 20.199157 -2.947375 -0.379406 -18.468807 0.000000 -0.000000 0.000000 11.942675 3.065272 9.183482 3.243207 2.423110 -2.928216 -0.787142 3.886547 0.327053 -0.974099 -6.080706 -0.898629 -1.623187 -9.707365 11.506555 -31.544830 3.081879 5.730065 -58.972044 4.051177 10.015430 14.165414 -34.689897 2.180931 11.615025 -17.395853 -20.964749 28.579336 7.860427 11.455739 50.716029 7.339001 8.864050 -10.852119 23.228210 0.131985 -4.219985 14.879058 -12.120884 
-0.948870 1.430931 0.993994 98.655448 2.268735 88.972621 2.732425 -3.437428 -24.141400 -1.734312 -10.383624 5.951223 3.337113 6.353351 -18.214485 0.000000 -0.000000 0.000000 7.883810 3.629367 3.454736 6.695455 18.758512 21.483858 -2.531441 0.160840 -19.283107 0.000000 -0.000000 0.000000 11.009296 3.058022 9.077150 3.348251 1.953225 -3.245235 -0.680084 3.825274 0.194054 -0.861197 -4.990372 -1.092224 -1.364647 -9.562391 11.700647 -31.306911 2.663703 5.401331 -58.429669 4.235398 10.467684 14.364798 -35.004264 1.490752 12.489463 -17.635746 -20.733466 28.791570 7.759033 10.985973 51.138695 7.061473 9.653130 -10.700267 23.367173 -0.116227 -4.116925 14.988921 -11.395633 
-0.922774 1.438845 0.989525 97.075906 2.507829 89.719437 2.643590 -3.337518 -24.396272 -1.918106 -8.851435 4.526865 3.225372 6.289199 -18.503089 0.000000 -0.000000 0.000000 7.904574 4.091282 4.186277 6.707055 19.536672 22.301128 -2.247866 0.570607 -19.553966 0.000000 -0.000000 0.000000 9.907138 3.427265 8.185702 3.662197 1.321994 -2.870723 -0.572856 3.663995 -0.080672 -0.680703 -4.059517 -0.874130 -0.906888 -9.053753 11.280230 -31.070981 1.885459 5.555609 -57.999327 4.039588 10.663009 14.589320 -34.290395 0.775691 12.862676 -17.609345 -20.055047 29.044279 7.449052 10.622536 51.448851 6.487715 10.119140 -10.547327 23.838656 0.240319 -3.310540 14.882990 -11.325138 
-0.894349 1.446553 0.984715 95.714289 2.987193 90.720404 2.872355 -3.854637 -24.675644 -2.076982 -7.687614 5.688912 4.274336 6.851234 -17.984475 0.000000 -0.000000 0.000000 8.027120 4.424262 5.053033 6.831138 20.438423 22.539783 -1.880864 0.567949 -19.363549 0.000000 -0.000000 0.000000 8.858829 3.770062 6.895923 3.980544 0.776701 -2.925142 -0.556827 3.417571 -0.378922 -0.447374 -3.465422 -0.475222 -0.245867 -8.101280 10.955278 -30.569203 1.636682 5.816756 -57.727418 3.664412 10.706560 14.247182 -33.081510 1.491142 13.670714 -16.812598 -19.660745 29.057728 6.697435 10.681378 52.138728 5.744350 10.538702 -10.450002 24.531903 1.294540 -2.547953 14.633083 -11.930831 
-0.864398 1.453794 0.980279 94.630986 3.520280 91.963224 3.167353 -4.595920 -24.961531 -1.823033 -7.092466 6.934949 6.582020 7.109434 -14.149280 0.000000 -0.000000 0.000000 8.066746 4.724638 5.748884 7.063568 21.160665 22.544090 -1.707707 0.603269 -18.541483 0.000000 -0.000000 0.000000 7.353958 4.194758 4.896660 4.511450 0.208708 -3.012798 -0.468048 3.118194 -0.623667 0.080656 -3.073274 0.174164 0.426584 -7.461729 10.974304 -30.275263 1.545746 6.449652 -57.362455 2.917616 10.918724 14.089369 -31.673160 1.994391 13.686287 -16.549972 -19.552378 29.146554 5.872898 11.160257 52.727824 4.879628 11.068583 -10.684355 25.042412 1.868794 -1.596657 14.401074 -12.500820 
